<?xml version="1.0" standalone="no"?>
<!DOCTYPE svg PUBLIC "-//W3C//DTD SVG 20010904//EN"
 "http://www.w3.org/TR/2001/REC-SVG-20010904/DTD/svg10.dtd">
<svg version="1.0" xmlns="http://www.w3.org/2000/svg"
 width="244.000000pt" height="244.000000pt" viewBox="0 0 244.000000 244.000000"
 preserveAspectRatio="xMidYMid meet">
<metadata>
Created by potrace 1.14, written by Peter Selinger 2001-2017
</metadata>
<g transform="translate(0.000000,244.000000) scale(0.100000,-0.100000)"
fill="#000000" stroke="none">
<path d="M0 1220 l0 -1220 135 0 135 0 6 27 c4 15 2 84 -4 153 -21 216 -14
269 40 347 37 54 71 61 38 8 -24 -39 -28 -90 -10 -155 11 -39 13 -43 25 -27
16 22 33 158 42 322 5 102 9 128 24 141 24 21 37 11 45 -34 13 -80 43 -156 84
-217 15 -22 31 -51 35 -65 17 -61 98 -213 133 -252 21 -24 59 -69 85 -102 26
-32 69 -78 96 -102 l49 -44 236 0 237 0 52 48 c96 88 217 215 217 228 0 7 5
16 11 20 19 12 -1 -192 -27 -278 -5 -16 5 -18 110 -18 95 0 116 3 116 15 0 33
-40 213 -55 248 -9 22 -11 36 -5 32 18 -11 67 -118 79 -175 7 -30 17 -70 23
-88 l10 -32 95 0 c87 0 95 2 100 21 3 11 11 18 19 15 7 -3 16 -1 19 4 10 16
55 12 55 -5 0 -9 6 -12 15 -9 8 4 15 10 15 16 0 5 -5 6 -10 3 -6 -3 -10 -1
-10 5 0 7 8 9 20 5 11 -3 38 -8 61 -10 23 -3 54 -11 70 -19 l29 -14 0 514 c0
389 -3 514 -12 514 -6 0 -31 -9 -54 -20 -47 -23 -208 -37 -219 -19 -5 7 -11 7
-19 0 -9 -8 -19 -4 -36 14 -43 46 -54 34 -65 -70 -12 -126 -29 -222 -47 -264
-10 -24 -21 -41 -24 -38 -3 3 2 48 10 101 18 105 14 146 -15 146 -10 0 -23 8
-28 19 -6 10 -38 29 -72 41 -34 13 -74 34 -90 48 -25 20 -30 22 -35 8 -3 -9
-1 -23 6 -31 13 -16 70 -132 70 -143 0 -4 -14 -13 -32 -21 -29 -13 -33 -13
-42 4 -6 10 -21 30 -33 45 -13 15 -23 35 -23 43 0 10 -7 13 -20 10 -30 -8 -24
9 15 40 38 30 43 48 20 67 -11 9 -18 8 -36 -9 -12 -11 -47 -28 -77 -36 -53
-16 -55 -16 -76 4 -39 36 -196 22 -196 -18 0 -8 24 -38 54 -65 32 -30 56 -61
58 -76 2 -19 10 -26 31 -28 39 -5 38 -42 -1 -42 -15 0 -32 -4 -37 -9 -11 -10
-163 1 -237 18 -27 6 -54 8 -62 5 -8 -3 -17 -1 -21 5 -12 21 -23 10 -30 -30
-5 -29 -3 -45 7 -55 14 -14 14 -14 249 15 37 5 86 5 110 0 24 -4 70 -8 102 -9
31 0 67 -6 78 -12 17 -10 23 -10 26 0 3 6 15 12 28 12 25 0 50 -24 40 -39 -3
-6 -1 -19 4 -30 8 -14 7 -22 -4 -31 -8 -7 -15 -18 -15 -25 0 -6 -9 -20 -20
-30 -11 -10 -20 -13 -20 -7 0 7 -7 12 -15 12 -7 0 -18 6 -22 14 -4 8 -24 16
-43 18 -39 3 -47 21 -12 26 12 2 22 8 22 14 0 7 -16 8 -46 4 -26 -3 -58 -6
-72 -6 -14 0 -22 -3 -18 -7 4 -5 19 -8 33 -8 15 0 28 -5 30 -11 2 -7 -21 -13
-66 -16 -57 -4 -76 -10 -101 -32 -17 -14 -36 -26 -41 -26 -5 0 -9 -6 -9 -13 0
-11 29 -16 120 -21 148 -8 171 -17 163 -60 -4 -17 -12 -36 -19 -43 -7 -7 -14
-18 -16 -25 -6 -18 -28 1 -28 25 0 18 -6 22 -38 24 -34 2 -39 -1 -49 -27 -12
-32 -10 -31 -161 -34 -19 -1 -42 -10 -55 -23 -23 -21 -23 -21 -35 -2 -7 11
-29 21 -52 25 -28 5 -40 12 -40 23 0 9 -8 21 -18 27 -22 14 -27 60 -7 68 8 3
15 14 15 24 0 11 10 26 22 34 24 16 20 45 -9 54 -10 3 -26 10 -35 15 -29 15
-35 11 -42 -26 -4 -19 -11 -35 -16 -35 -4 0 -6 -8 -3 -19 7 -27 -23 -34 -60
-14 -18 10 -61 22 -97 28 -61 9 -65 12 -70 40 -4 21 -12 31 -30 35 -15 4 -26
14 -28 27 -3 20 -71 83 -90 83 -23 0 -128 163 -138 214 -4 22 -11 33 -22 32
-11 -1 -19 12 -25 43 -8 40 -10 43 -35 36 -86 -22 -121 4 -151 115 -90 330
-99 383 -81 440 7 23 8 22 9 -10 1 -19 8 -48 14 -64 l13 -30 27 47 c30 51 43
52 69 7 20 -35 38 -39 38 -9 0 36 -116 136 -145 125 -20 -7 -19 18 2 39 22 22
81 15 123 -15 l30 -21 0 21 c0 11 -7 35 -16 51 -13 27 -14 48 -4 167 22 263
57 395 135 504 l35 48 -245 0 -245 0 0 -1220z m1920 -425 c0 -8 -4 -15 -10
-15 -5 0 -10 7 -10 15 0 8 5 15 10 15 6 0 10 -7 10 -15z m-25 -132 c-3 -29
-10 -55 -14 -58 -5 -2 -22 1 -40 8 -34 13 -42 45 -16 67 8 7 15 22 15 34 1 19
1 20 11 3 8 -14 14 -16 25 -6 8 6 15 21 15 33 2 18 2 18 6 -3 3 -14 2 -48 -2
-78z"/>
<path d="M1800 2435 c0 -3 16 -26 35 -51 19 -25 47 -67 62 -92 29 -52 62 -92
75 -92 5 0 31 -16 59 -35 28 -19 57 -35 65 -35 7 0 18 -9 24 -20 6 -11 17 -20
25 -20 7 0 20 -6 27 -14 8 -8 37 -26 64 -40 27 -14 84 -55 127 -92 l77 -66 0
281 0 281 -320 0 c-176 0 -320 -2 -320 -5z"/>
<path d="M1995 2093 c23 -62 38 -156 56 -368 21 -235 22 -240 48 -262 17 -15
39 -23 64 -23 20 0 37 -4 37 -10 0 -5 7 -10 16 -10 9 0 47 -21 85 -47 39 -27
86 -58 105 -71 l34 -22 0 258 0 257 -57 52 c-81 72 -113 97 -150 118 -18 11
-33 23 -33 27 0 4 -7 8 -15 8 -8 0 -15 4 -15 8 0 5 -20 19 -43 31 -24 12 -56
33 -70 47 -31 29 -73 33 -62 7z"/>
<path d="M1147 1609 c-44 -10 -97 -36 -97 -47 0 -4 7 -18 16 -30 12 -17 13
-23 2 -26 -24 -7 -184 -26 -216 -26 -21 0 -32 -5 -32 -14 0 -26 34 -41 109
-47 75 -7 241 -48 241 -60 0 -12 -67 -39 -95 -39 -15 0 -24 -4 -20 -10 9 -15
68 -12 109 5 24 10 50 13 72 9 26 -5 47 0 87 20 61 30 104 89 113 158 l6 44
-43 16 c-140 49 -199 60 -252 47z"/>
<path d="M1694 1569 c-73 -12 -101 -25 -120 -54 -15 -23 -15 -33 -4 -83 29
-131 73 -165 201 -156 93 7 109 11 89 24 -13 8 -12 12 5 24 11 9 14 16 8 16
-7 0 -13 6 -13 14 0 17 39 28 77 20 61 -12 85 65 29 95 -37 21 -37 35 -1 41
31 5 40 21 15 26 -8 2 -33 7 -55 12 -22 5 -50 14 -62 20 -24 13 -93 14 -169 1z"/>
<path d="M302 1427 c-35 -36 -39 -54 -19 -82 11 -14 21 -16 50 -11 32 6 37 11
43 42 7 39 -8 84 -29 84 -7 0 -27 -15 -45 -33z"/>
<path d="M2076 1398 c-3 -18 -7 -95 -9 -171 -3 -126 -2 -139 15 -148 26 -14
41 -3 28 21 -13 24 14 54 66 76 70 29 128 9 172 -59 24 -38 30 -42 57 -37 28
5 30 8 33 55 l2 50 -62 40 c-146 94 -210 140 -250 177 -39 36 -46 35 -52 -4z"/>
<path d="M260 1221 c0 -5 7 -12 16 -15 14 -5 15 -4 4 9 -14 17 -20 19 -20 6z"/>
<path d="M2173 1110 c-22 -9 -39 -43 -29 -59 8 -12 90 -22 126 -15 41 9 39 37
-4 63 -36 22 -58 25 -93 11z"/>
</g>
</svg>
